<svg width="512" height="512" xmlns="http://www.w3.org/2000/svg"><path fill="none" d="M-1-1h582v402H-1z"/><g><path d="M152.313 448.135h207.37v63.864h-207.37v-63.864z" fill="#6b6b6b"/><path d="M216.006 339.895h79.996v108.23h-79.996v-108.23z" fill="#999"/><path d="M216.001 394.017l40 21.48 40-17.999v-41.001h-80v37.52z" fill="#515151"/><path d="M64.499.002h385.469v32H64.499v-32zm68.014 292.495C-1.735 250.682.001 99.874.001 98.354l.344-15.656h94.904v32H32.753c3.28 35.328 20.504 119.592 109.263 147.2l-9.503 30.599zm246.975 0l-9.496-30.559c88.799-27.64 105.984-111.903 109.263-147.2h-62.503v-32h94.904L512 98.354c-.001 1.52 1.735 152.328-132.512 194.143z" fill="#333"/><path fill="#6b6b6b" d="M256.129 382.257V32.003H82.984v119.839c0 50.064 21.169 169.464 173.145 230.415z"/><path d="M256.129 382.257V32.003H429.28v119.839c0 50.064-21.169 169.464-173.151 230.415z"/><path fill="#e21b1b" d="M256.001 73.603c-62.952 0-113.983 51.032-113.983 113.983s51.032 113.983 113.983 113.983c62.946 0 113.975-51.022 113.983-113.968.009-62.952-51.016-113.991-113.968-113.999l-.015.001z"/><text stroke="null" transform="matrix(5.22404 .09595 -.09462 5.15197 -1032.42 -682.37)" font-family="Helvetica, Arial, sans-serif" font-size="24" y="172.516" x="243.069" fill-opacity="null" stroke-opacity="null" stroke-width="0" fill="#fff">3</text></g></svg>