<svg style="color:#C91F4E;"  aria-hidden="true" data-prefix="fal" data-icon="user-cog" xmlns="http://www.w3.org/2000/svg" viewBox="0 0 640 512" class="svg-inline--fa fa-user-cog fa-w-20 fa-2x"><path fill="currentColor" d="M628 358l-16-9v-26l16-9c10-6 14-17 11-27-7-24-20-46-37-64-7-8-19-10-29-4l-16 9-22-13v-19c0-11-8-20-18-22-24-6-50-6-74 0-10 2-18 12-18 22v19l-22 13-17-9c-9-6-21-4-28 4-17 18-30 40-37 64-3 10 1 21 11 27l16 9v26l-16 9c-10 6-14 17-11 27 7 24 20 46 37 64 7 8 19 10 28 4l17-9 22 13v19c0 11 8 20 18 22a167 167 0 0074 0c10-2 18-11 18-22v-19l22-13 16 9c10 6 22 4 29-4 17-18 30-40 37-63 3-11-1-22-11-28zm-51 8l29 17c-5 14-13 27-23 39l-29-17c-22 18-25 20-51 30v34c-15 2-31 2-46 0v-34c-27-10-30-12-51-30l-29 17c-10-12-18-25-23-39l29-17c-5-27-5-31 0-59l-29-17c5-15 13-28 23-40l29 17c21-18 25-20 51-29v-34c15-3 31-3 46 0v34c27 9 30 11 51 29l29-17c10 12 18 25 23 40l-29 17c5 26 5 30 0 59zm-97-94a65 65 0 100 129 65 65 0 000-129zm0 97a33 33 0 010-65 33 33 0 010 65zM224 256a128 128 0 100-256 128 128 0 000 256zm0-224a96 96 0 110 192 96 96 0 010-192zM48 480c-9 0-16-7-16-16v-42c0-56 46-102 102-102 20 0 40 16 90 16 19 0 38-3 57-9 0-11 1-23 4-34-9 3-30 11-61 11-47 0-61-16-90-16C60 288 0 348 0 422v42c0 27 22 48 48 48h337c-16-9-31-19-43-32H48z"/></svg>