<svg xmlns="http://www.w3.org/2000/svg" viewBox="0 0 512 512"><path fill="#6b6b6b" d="M152.313 448.135h207.37v63.864h-207.37z"/><path fill="#999" d="M216.006 339.895h79.996v108.23h-79.996z"/><path fill="#515151" d="M216.001 394.017l40 21.48 40-17.999v-41.001h-80z"/><g fill="#333"><path d="M64.499.002h385.469v32H64.499zM132.513 292.497C-1.735 250.682.001 99.874.001 98.354l.344-15.656h94.904v32H32.753c3.28 35.328 20.504 119.592 109.263 147.2l-9.503 30.599zM379.488 292.497l-9.496-30.559c88.799-27.64 105.984-111.903 109.263-147.2h-62.503v-32h94.904L512 98.354c-.001 1.52 1.735 152.328-132.512 194.143z"/></g><path d="M256.129 382.257V32.003H82.984v119.839c0 50.064 21.169 169.464 173.145 230.415z" fill="#6b6b6b"/><path d="M256.129 382.257V32.003H429.28v119.839c0 50.064-21.169 169.464-173.151 230.415z"/><path d="M256.001 73.603c-62.952 0-113.983 51.032-113.983 113.983s51.032 113.983 113.983 113.983c62.946 0 113.975-51.022 113.983-113.968.009-62.952-51.016-113.991-113.968-113.999l-.015.001z" fill="#e21b1b"/><path d="M248.456 148.65h-.36l-21.264 10.728-3.76-16.616 28.24-13.944h18.4v116.16h-21.256V148.65z" fill="#fff"/></svg>